<?xml version="1.0" encoding="UTF-8" standalone="no"?>
<!-- Created with Inkscape (http://www.inkscape.org/) -->

<svg
   width="1280"
   height="720"
   viewBox="0 0 338.66667 190.5"
   version="1.1"
   id="svg1"
   xml:space="preserve"
   xmlns:xlink="http://www.w3.org/1999/xlink"
   xmlns="http://www.w3.org/2000/svg"
   xmlns:svg="http://www.w3.org/2000/svg"><defs
     id="defs1" /><g
     id="layer1"
     transform="translate(33.5947,-45.278618)"
     style="display:inline"><use
       x="0"
       y="0"
       xlink:href="#g55"
       id="use82"
       style="display:inline"
       transform="translate(61.991866,37.471492)" /><use
       x="0"
       y="0"
       xlink:href="#g56"
       id="use83"
       style="display:inline"
       transform="translate(107.8177,37.471492)" /><use
       x="0"
       y="0"
       xlink:href="#g55"
       id="use84"
       style="display:inline"
       transform="translate(24.816242,74.647105)" /><use
       x="0"
       y="0"
       xlink:href="#g56"
       id="use85"
       style="display:inline"
       transform="translate(24.716404,120.47294)" /><path
       style="display:inline;opacity:1;fill:#c3946d;fill-opacity:1;stroke:#4d4d4d;stroke-width:0.35;stroke-linecap:round;stroke-linejoin:round;stroke-miterlimit:4;stroke-dasharray:none;stroke-opacity:0.992157"
       d="M 74.148756,104.99998 194.32583,105"
       id="path86"
       transform="translate(1.5013381,3.9654986)" /><path
       style="display:inline;opacity:1;fill:#c3946d;fill-opacity:1;stroke:#4d4d4d;stroke-width:0.35;stroke-linecap:round;stroke-linejoin:round;stroke-miterlimit:4;stroke-dasharray:none;stroke-opacity:0.992157"
       d="m 102.67416,196.65166 2e-5,-120.177081"
       id="path87"
       transform="translate(1.5013381,3.9654986)" /><path
       style="display:inline;opacity:1;fill:#c3946d;fill-opacity:1;stroke:#4d4d4d;stroke-width:0.35;stroke-linecap:round;stroke-linejoin:round;stroke-miterlimit:4;stroke-dasharray:none;stroke-opacity:0.992157"
       d="m 150.00133,200.61716 2e-5,-120.177082"
       id="path88" /><path
       style="display:inline;opacity:1;fill:#c3946d;fill-opacity:1;stroke:#4d4d4d;stroke-width:0.35;stroke-linecap:round;stroke-linejoin:round;stroke-miterlimit:4;stroke-dasharray:none;stroke-opacity:0.992157"
       d="m 75.650094,154.61631 120.177076,2e-5"
       id="path89" /><use
       x="0"
       y="0"
       xlink:href="#g93"
       id="use104"
       style="display:inline"
       transform="translate(98.521537,111.35936)" /><use
       x="0"
       y="0"
       xlink:href="#g93"
       id="use105"
       style="display:inline"
       transform="translate(98.521537,157.01019)" /><use
       x="0"
       y="0"
       xlink:href="#g93"
       id="use106"
       style="display:inline"
       transform="translate(144.34738,111.35936)" /><use
       x="0"
       y="0"
       xlink:href="#g93"
       id="use96"
       style="display:inline"
       transform="translate(144.34737,157.0977)" /><use
       x="0"
       y="0"
       xlink:href="#g92"
       id="use95"
       transform="translate(93.082609,111.44687)"
       style="display:inline" /><use
       x="0"
       y="0"
       xlink:href="#g92"
       id="use97"
       transform="translate(93.082609,157.0977)"
       style="display:inline" /><use
       x="0"
       y="0"
       xlink:href="#g92"
       id="use100"
       transform="translate(138.90844,157.18521)"
       style="display:inline" /><use
       x="0"
       y="0"
       xlink:href="#g92"
       id="use103"
       transform="translate(138.90845,111.44687)"
       style="display:inline" /><use
       x="0"
       y="0"
       xlink:href="#g91"
       id="use91"
       style="display:inline"
       transform="translate(-63.47796,134.13265)" /><use
       x="0"
       y="0"
       xlink:href="#g91"
       id="use107"
       style="display:inline"
       transform="translate(-40.56504,134.13265)" /><use
       x="0"
       y="0"
       xlink:href="#g115"
       id="use116"
       style="display:inline"
       transform="translate(17.769537,73.195045)" /><use
       x="0"
       y="0"
       xlink:href="#g115"
       id="use117"
       style="display:inline"
       transform="translate(86.667911,27.544216)" /><use
       x="0"
       y="0"
       xlink:href="#g118"
       id="use121"
       style="display:inline"
       transform="translate(-75.394197,116.09694)" /><use
       x="0"
       y="0"
       xlink:href="#g118"
       id="use122"
       style="display:inline"
       transform="translate(-52.321659,115.99543)" /><use
       x="0"
       y="0"
       xlink:href="#g93"
       id="use110"
       style="display:inline;stroke-width:0.641513"
       transform="matrix(1.5588155,0,0,1.5588155,87.787335,32.151703)" /><use
       x="0"
       y="0"
       xlink:href="#g92"
       id="use109"
       style="display:inline;stroke-width:0.641512"
       transform="matrix(1.5588175,0,0,1.5588175,26.21207,122.72867)" /><rect
       style="opacity:1;fill:none;fill-opacity:1;stroke:none;stroke-width:0.55;stroke-linecap:round;stroke-linejoin:round;stroke-miterlimit:4;stroke-dasharray:none;stroke-opacity:1;paint-order:stroke markers fill"
       id="rect144"
       width="338.66666"
       height="190.5"
       x="-33.5947"
       y="45.278618" /></g><g
     id="layer2"
     style="display:none"><g
       id="g55"
       style="display:inline"><use
         x="0"
         y="0"
         xlink:href="#g11"
         id="use11"
         transform="matrix(-0.97878193,-0.20490467,-0.20490467,0.97878193,268.01531,55.889595)" /><circle
         style="fill:none;stroke:#00aa00;stroke-width:0.949999;stroke-linecap:round;stroke-linejoin:round;stroke-miterlimit:4;stroke-dasharray:none;stroke-opacity:0.992157"
         id="path54"
         cx="65.096565"
         cy="57.231297"
         r="11.140068" /><text
         xml:space="preserve"
         style="font-size:3.175px;line-height:1.3;font-family:'Open Sans';-inkscape-font-specification:'Open Sans';text-align:center;letter-spacing:0px;writing-mode:lr-tb;direction:ltr;text-anchor:middle;display:inline;fill:#00aa00;stroke:none;stroke-width:0.55;stroke-linecap:round;stroke-linejoin:round;stroke-miterlimit:4;stroke-opacity:0.992157"
         x="48.099236"
         y="72.726334"
         id="text55"
         transform="rotate(-15)"><tspan
           id="tspan55"
           style="font-style:normal;font-variant:normal;font-weight:800;font-stretch:normal;font-size:3.175px;font-family:'Open Sans';-inkscape-font-specification:'Open Sans Ultra-Bold';fill:#00aa00;stroke:none;stroke-width:0.55"
           x="48.099236"
           y="72.726334">Collaborate</tspan></text></g><g
       id="g56"
       style="display:inline"><use
         x="0"
         y="0"
         xlink:href="#g75"
         id="use75"
         transform="rotate(-26.042557,159.81917,107.41942)" /><circle
         style="fill:none;stroke:#aa0000;stroke-width:0.950001;stroke-linecap:round;stroke-linejoin:round;stroke-miterlimit:4;stroke-dasharray:none;stroke-opacity:0.992157"
         id="circle55"
         cx="65.096565"
         cy="57.231297"
         r="11.140068" /><text
         xml:space="preserve"
         style="font-size:4.23333px;line-height:1.3;font-family:'Open Sans';-inkscape-font-specification:'Open Sans';text-align:center;letter-spacing:0px;writing-mode:lr-tb;direction:ltr;text-anchor:middle;fill:#aa0000;stroke:none;stroke-width:0.55;stroke-linecap:round;stroke-linejoin:round;stroke-miterlimit:4;stroke-opacity:0.992157"
         x="47.988907"
         y="73.540695"
         id="text56"
         transform="rotate(-15)"><tspan
           id="tspan56"
           style="font-style:normal;font-variant:normal;font-weight:800;font-stretch:normal;font-size:4.23333px;font-family:'Open Sans';-inkscape-font-specification:'Open Sans Ultra-Bold';fill:#aa0000;stroke:none;stroke-width:0.55"
           x="47.988907"
           y="73.540695">Defect</tspan></text></g><g
       id="g11"
       transform="matrix(0.15690989,0,0,0.15441901,173.59276,29.886195)"
       style="stroke-width:6.42428"><path
         style="display:inline;opacity:1;fill:#ffd42a;stroke:#000000;stroke-width:2.2485;stroke-linecap:round;stroke-linejoin:round;stroke-miterlimit:4;stroke-dasharray:none;stroke-opacity:0.992157"
         d="m 189.99436,111.49989 c -1.96614,-0.36956 -3.79124,-1.28274 -5.71199,-1.8422 -2.94769,-0.85857 -6.02649,-1.2716 -8.913,-2.32219 -1.77568,-0.64628 -3.42041,-1.61297 -5.12462,-2.43226 -1.4242,-0.68467 -2.72888,-1.70261 -4.26245,-2.07534 -1.08568,-0.26387 -2.74952,-1.02942 -3.34918,-0.0782 -0.78344,1.24269 1.02938,2.81176 1.94388,3.95956 1.12612,1.41339 2.95045,2.1059 4.20417,3.40517 0.46814,0.48514 0.96239,0.99292 1.21799,1.61762 0.33074,0.80834 0.73102,1.81502 0.3432,2.59758 -0.76599,1.54565 -2.91425,1.87288 -4.49308,2.56792 -2.40718,1.0597 -4.99663,1.64591 -7.51382,2.40829 -4.68218,1.41809 -9.55061,2.34666 -14.11312,4.02786 -1.12903,0.41603 -2.12457,0.98687 -2.58376,1.9671 -0.32704,0.69812 -0.28563,1.64386 0.10148,2.31055 0.1923,0.33118 0.97184,0.61276 0.97184,0.61276 -1.59777,0.12326 -2.1865,0.42028 -2.92333,1.13576 -0.47437,0.46062 -0.98328,1.08896 -0.93671,1.74853 0.0556,0.78758 0.70006,1.54622 1.40079,1.91001 0.94274,0.48942 1.93397,0.26489 3.18601,0.0628 -1.30817,0.52436 -1.49158,1.03481 -1.71422,1.83652 -0.17962,0.64681 -0.16037,1.4669 0.24979,1.99831 0.41095,0.53244 1.20814,0.65062 1.87343,0.74937 1.92196,0.28526 3.88658,-0.2081 5.80761,-0.49958 0.84267,-0.12786 2.49789,-0.54641 2.49789,-0.54641 -0.88939,0.47167 -0.87441,1.49127 -0.56202,2.17005 0.43591,0.94716 1.81893,1.05033 2.81013,1.37384 1.46729,0.47889 3.01797,0.71951 4.55867,0.81182 1.10302,0.0661 2.22313,0.0136 3.30971,-0.18735 1.54711,-0.28612 2.95837,-1.10393 4.49621,-1.43629 1.92558,-0.41615 3.91917,-0.41289 5.87006,-0.68692 2.67379,-0.37557 5.37991,-0.63271 7.99327,-1.31139 2.67666,-0.69512 5.27607,-1.68785 7.80593,-2.81014 1.98157,-0.87906 5.74517,-3.05992 5.74517,-3.05992 0,0 -3.53904,-19.3091 -4.18593,-19.98318 -1e-5,-10e-6 0,-5e-5 0,-5e-5 z"
         id="path1" /><path
         style="opacity:1;fill:none;stroke:#000000;stroke-width:2.2485;stroke-linecap:round;stroke-linejoin:round;stroke-miterlimit:4;stroke-dasharray:none;stroke-opacity:0.992157"
         d="m 142.7119,128.22406 c 9.15019,-0.47541 13.12768,-2.49283 18.69799,-3.50742"
         id="path2" /><path
         style="fill:none;stroke:#000000;stroke-width:2.2485;stroke-linecap:round;stroke-linejoin:round;stroke-miterlimit:4;stroke-dasharray:none;stroke-opacity:0.992157"
         d="m 143.43866,133.08116 c 3.91315,-0.52418 5.00154,-0.85242 8.08766,-1.03465 3.08612,-0.18224 8.06876,-1.65309 11.08679,-2.15588"
         id="path3" /><path
         style="fill:none;stroke:#000000;stroke-width:2.2485;stroke-linecap:round;stroke-linejoin:round;stroke-miterlimit:4;stroke-dasharray:none;stroke-opacity:0.992157"
         d="m 152.15316,136.61937 c 0,0 4.10824,-0.6856 6.95554,-0.6025 2.8473,0.0831 8.03185,-1.75492 8.03185,-1.75492"
         id="path4" /><path
         style="display:inline;opacity:1;fill:#333333;fill-opacity:1;stroke:#000000;stroke-width:1.60606;stroke-linecap:round;stroke-linejoin:round;stroke-miterlimit:4;stroke-dasharray:none;stroke-opacity:0.992157"
         d="m 194.18029,131.48312 23.23106,-5.65615 8.46475,-21.35325 -35.88174,7.02617 z"
         id="path67" /></g><g
       id="g92"
       transform="matrix(1.9880576,0,0,1.9880576,-66.176233,-116.74365)"
       style="stroke:none;stroke-width:0.503004"><rect
         style="opacity:1;fill:#24346a;fill-opacity:1;stroke:none;stroke-width:0.176051;stroke-linecap:round;stroke-linejoin:round;stroke-miterlimit:4;stroke-dasharray:none;stroke-opacity:1;paint-order:stroke markers fill"
         id="rect92"
         width="1.1672937"
         height="1.0386149"
         x="44.060413"
         y="69.356682" /><ellipse
         style="opacity:1;fill:#263a73;fill-opacity:1;stroke:none;stroke-width:0.176051;stroke-linecap:round;stroke-linejoin:round;stroke-miterlimit:4;stroke-dasharray:none;stroke-opacity:1;paint-order:stroke markers fill"
         id="path91"
         cx="44.629288"
         cy="66.984215"
         rx="2.1841695"
         ry="2.6378655" /><path
         style="opacity:1;fill:#1e2f5a;fill-opacity:1;stroke:none;stroke-width:0.176051;stroke-linecap:round;stroke-linejoin:round;stroke-miterlimit:4;stroke-dasharray:none;stroke-opacity:1;paint-order:stroke markers fill"
         d="m 44.629288,70.216297 c 1.434158,0 3.142406,0.468131 3.513737,0.940515 0.371332,0.472385 0.491009,1.61476 0.176317,2.051307 -0.314691,0.436545 -3.770346,0.349672 -3.770346,0.349672 z"
         id="path92" /><use
         x="0"
         y="0"
         xlink:href="#path92"
         id="use92"
         transform="matrix(-1,0,0,1,89.258576,1.1504562e-7)"
         style="stroke:none;stroke-width:0.503004" /><text
         xml:space="preserve"
         style="font-weight:800;font-size:6.35px;line-height:1.3;font-family:'Open Sans';-inkscape-font-specification:'Open Sans Ultra-Bold';text-align:center;letter-spacing:0px;writing-mode:lr-tb;direction:ltr;text-anchor:middle;display:inline;opacity:1;fill:#131e3a;fill-opacity:1;stroke:none;stroke-width:0.349999;stroke-linecap:round;stroke-linejoin:round;stroke-miterlimit:4;stroke-dasharray:none;stroke-opacity:1;paint-order:stroke markers fill"
         x="22.549362"
         y="18.700657"
         id="text109"
         transform="matrix(0.50300354,0,0,0.50300354,33.286879,58.722469)"><tspan
           id="tspan109"
           style="font-size:6.35px;text-align:center;text-anchor:middle;fill:#131e3a;fill-opacity:1;stroke-width:0.35"
           x="22.549362"
           y="18.700657">A</tspan></text></g><g
       id="g75"
       transform="translate(-103.05895,-29.508882)"><path
         style="opacity:1;fill:#dbd6dc;fill-opacity:1;stroke:none;stroke-width:0.249999;stroke-linecap:round;stroke-linejoin:round;stroke-miterlimit:4;stroke-dasharray:none;stroke-opacity:0.992157"
         d="m 204.91182,54.326221 h -4.7728 c -1.87304,0 -3.80535,0.590466 -4.54049,1.636691 0.89374,0.893741 2.29321,1.509976 3.2417,1.509976 h 6.07159 z"
         id="path71" /><rect
         style="opacity:1;fill:#aa9134;fill-opacity:1;stroke:none;stroke-width:0.249998;stroke-linecap:round;stroke-linejoin:round;stroke-miterlimit:4;stroke-dasharray:none;stroke-opacity:0.992157"
         id="rect71"
         width="1.006653"
         height="5.3430018"
         x="204.91182"
         y="53.228054"
         rx="0"
         ry="0" /><path
         id="rect74"
         style="opacity:1;fill:#80542d;stroke-width:0.249998;stroke-linecap:round;stroke-linejoin:round;stroke-opacity:0.992157"
         d="m 205.91847,54.781097 h 3.702 l -0.49958,2.23692 h -3.20242 z" /><path
         style="opacity:1;fill:#b0a5b3;fill-opacity:1;stroke:none;stroke-width:0.249999;stroke-linecap:round;stroke-linejoin:round;stroke-miterlimit:4;stroke-dasharray:none;stroke-opacity:0.992157"
         d="m 204.91182,55.962912 c -3.13801,-0.0075 -6.2148,0 -9.31329,0 0.89374,0.893741 2.29321,1.509976 3.2417,1.509976 h 6.07159 z"
         id="path74" /></g><g
       id="g91"
       transform="matrix(0.58241752,0,0,0.58241752,83.598502,-6.4064608)"
       style="stroke-width:1.71698"><circle
         style="opacity:1;fill:#e9b42c;fill-opacity:1;stroke:#684e0b;stroke-width:0.772642;stroke-linecap:round;stroke-linejoin:round;stroke-miterlimit:4;stroke-dasharray:none;stroke-opacity:1"
         id="path90"
         cx="242.67343"
         cy="101.07008"
         r="4.0182867" /><path
         style="font-weight:800;font-size:4.23333px;line-height:1.3;font-family:'Open Sans';-inkscape-font-specification:'Open Sans Ultra-Bold';text-align:end;letter-spacing:0px;text-anchor:end;fill:#554400;stroke-width:1.80283;stroke-linecap:round;stroke-linejoin:round"
         d="m 243.0805,102.58114 h -0.82889 v -1.49448 q 0,-0.0413 0,-0.1509 0,-0.11162 0.002,-0.24598 0.004,-0.13436 0.0103,-0.24184 -0.0537,0.0641 -0.10128,0.10955 -0.0455,0.0455 -0.0889,0.0847 l -0.34313,0.28319 -0.42374,-0.5209 1.03766,-0.845443 h 0.73587 z"
         id="text90"
         aria-label="1" /></g><g
       id="g93"
       transform="matrix(1.9880576,0,0,1.9880576,-48.702248,-116.74365)"
       style="stroke:none;stroke-width:0.503004"><rect
         style="opacity:1;fill:#6a2424;fill-opacity:1;stroke:none;stroke-width:0.176051;stroke-linecap:round;stroke-linejoin:round;stroke-miterlimit:4;stroke-dasharray:none;stroke-opacity:1;paint-order:stroke markers fill"
         id="rect93"
         width="1.1672937"
         height="1.0386149"
         x="44.060413"
         y="69.356682" /><ellipse
         style="opacity:1;fill:#732626;fill-opacity:1;stroke:none;stroke-width:0.176051;stroke-linecap:round;stroke-linejoin:round;stroke-miterlimit:4;stroke-dasharray:none;stroke-opacity:1;paint-order:stroke markers fill"
         id="ellipse93"
         cx="44.629288"
         cy="66.984215"
         rx="2.1841695"
         ry="2.6378655" /><path
         style="opacity:1;fill:#5a1e1e;fill-opacity:1;stroke:none;stroke-width:0.176051;stroke-linecap:round;stroke-linejoin:round;stroke-miterlimit:4;stroke-dasharray:none;stroke-opacity:1;paint-order:stroke markers fill"
         d="m 44.629288,70.216297 c 1.434158,0 3.142406,0.468131 3.513737,0.940515 0.371332,0.472385 0.491009,1.61476 0.176317,2.051307 -0.314691,0.436545 -3.770346,0.349672 -3.770346,0.349672 z"
         id="path93" /><use
         x="0"
         y="0"
         xlink:href="#path93"
         id="use94"
         transform="matrix(-1,0,0,1,89.258576,1.1504562e-7)"
         style="stroke-width:0.503004" /><text
         xml:space="preserve"
         style="font-weight:800;font-size:6.35px;line-height:1.3;font-family:'Open Sans';-inkscape-font-specification:'Open Sans Ultra-Bold';text-align:center;letter-spacing:0px;writing-mode:lr-tb;direction:ltr;text-anchor:middle;display:inline;fill:#3a1313;fill-opacity:1;stroke:none;stroke-width:0.349999;stroke-linecap:round;stroke-linejoin:round;stroke-miterlimit:4;stroke-dasharray:none;stroke-opacity:1;paint-order:stroke markers fill"
         x="40.023346"
         y="18.700657"
         id="text109-5"
         transform="matrix(0.50300354,0,0,0.50300354,24.497403,58.722469)"><tspan
           id="tspan109-5"
           style="font-size:6.35px;text-align:center;text-anchor:middle;fill:#3a1313;fill-opacity:1;stroke-width:0.35"
           x="40.023346"
           y="18.700657">B</tspan></text></g><g
       id="g115"
       transform="translate(-17.737671,-48.611557)"><use
         x="0"
         y="0"
         xlink:href="#g91"
         id="use111"
         style="display:inline"
         transform="translate(-113.39825,110.61222)" /><use
         x="0"
         y="0"
         xlink:href="#g91"
         id="use112"
         style="display:inline"
         transform="translate(-109.49528,107.20884)" /><use
         x="0"
         y="0"
         xlink:href="#g91"
         id="use113"
         style="display:inline"
         transform="translate(-110.55689,110.29998)" /><use
         x="0"
         y="0"
         xlink:href="#g91"
         id="use114"
         style="display:inline"
         transform="translate(-106.92996,112.33948)" /><use
         x="0"
         y="0"
         xlink:href="#g91"
         id="use115"
         style="display:inline"
         transform="translate(-105.52987,109.11348)" /></g><g
       id="g118"><use
         x="0"
         y="0"
         xlink:href="#g91"
         id="use118"
         style="display:inline"
         transform="translate(-35.878793,-28.309739)" /><use
         x="0"
         y="0"
         xlink:href="#g91"
         id="use119"
         style="display:inline"
         transform="translate(-33.313472,-25.744418)" /><use
         x="0"
         y="0"
         xlink:href="#g91"
         id="use120"
         style="display:inline"
         transform="translate(-31.94039,-29.457821)" /></g></g></svg>
